<mxfile host="app.diagrams.net" agent="Mozilla/5.0 (X11; Linux x86_64; rv:109.0) Gecko/20100101 Firefox/115.0" version="24.7.17">
  <diagram name="Page-1" id="SZrk_ABsmCLI8e57yroR">
    <mxGraphModel dx="733" dy="388" grid="1" gridSize="10" guides="1" tooltips="1" connect="1" arrows="1" fold="1" page="1" pageScale="1" pageWidth="850" pageHeight="1100" background="none" math="0" shadow="0">
      <root>
        <mxCell id="0" />
        <mxCell id="1" parent="0" />
        <mxCell id="t9NuXf0_EhJUc3xIbt0Y-5" value="" style="shape=mxgraph.electrical.electro-mechanical.motor_2;html=1;shadow=0;dashed=0;align=center;fontSize=30;strokeWidth=1;rotation=-90;rounded=0;" vertex="1" parent="1">
          <mxGeometry x="760" y="220" width="100" height="60" as="geometry" />
        </mxCell>
        <mxCell id="t9NuXf0_EhJUc3xIbt0Y-35" style="edgeStyle=orthogonalEdgeStyle;rounded=0;orthogonalLoop=1;jettySize=auto;html=1;" edge="1" parent="1" source="t9NuXf0_EhJUc3xIbt0Y-6" target="t9NuXf0_EhJUc3xIbt0Y-17">
          <mxGeometry relative="1" as="geometry">
            <Array as="points">
              <mxPoint x="540" y="250" />
              <mxPoint x="540" y="170" />
            </Array>
          </mxGeometry>
        </mxCell>
        <mxCell id="t9NuXf0_EhJUc3xIbt0Y-37" value="speed sensor D8" style="edgeLabel;html=1;align=center;verticalAlign=middle;resizable=0;points=[];rounded=0;" vertex="1" connectable="0" parent="t9NuXf0_EhJUc3xIbt0Y-35">
          <mxGeometry x="0.6973" y="-1" relative="1" as="geometry">
            <mxPoint x="14" as="offset" />
          </mxGeometry>
        </mxCell>
        <mxCell id="t9NuXf0_EhJUc3xIbt0Y-6" value="" style="shape=mxgraph.electrical.electro-mechanical.motor_2;html=1;shadow=0;dashed=0;align=center;fontSize=30;strokeWidth=1;rotation=90;rounded=0;" vertex="1" parent="1">
          <mxGeometry x="650" y="220" width="100" height="60" as="geometry" />
        </mxCell>
        <mxCell id="t9NuXf0_EhJUc3xIbt0Y-7" style="edgeStyle=orthogonalEdgeStyle;rounded=0;orthogonalLoop=1;jettySize=auto;html=1;exitX=1.009;exitY=0.149;exitDx=0;exitDy=0;exitPerimeter=0;entryX=1;entryY=0.5;entryDx=0;entryDy=0;entryPerimeter=0;" edge="1" parent="1" source="t9NuXf0_EhJUc3xIbt0Y-16" target="t9NuXf0_EhJUc3xIbt0Y-5">
          <mxGeometry relative="1" as="geometry">
            <mxPoint x="630" y="70.00000000000006" as="sourcePoint" />
          </mxGeometry>
        </mxCell>
        <mxCell id="t9NuXf0_EhJUc3xIbt0Y-8" style="edgeStyle=orthogonalEdgeStyle;rounded=0;orthogonalLoop=1;jettySize=auto;html=1;exitX=0.999;exitY=0.378;exitDx=0;exitDy=0;exitPerimeter=0;entryX=0;entryY=0.5;entryDx=0;entryDy=0;entryPerimeter=0;" edge="1" parent="1" source="t9NuXf0_EhJUc3xIbt0Y-16" target="t9NuXf0_EhJUc3xIbt0Y-5">
          <mxGeometry relative="1" as="geometry">
            <mxPoint x="630" y="90.00000000000006" as="sourcePoint" />
            <Array as="points">
              <mxPoint x="620" y="90" />
              <mxPoint x="770" y="90" />
              <mxPoint x="770" y="320" />
              <mxPoint x="810" y="320" />
            </Array>
          </mxGeometry>
        </mxCell>
        <mxCell id="t9NuXf0_EhJUc3xIbt0Y-9" style="edgeStyle=orthogonalEdgeStyle;rounded=0;orthogonalLoop=1;jettySize=auto;html=1;exitX=0.994;exitY=0.556;exitDx=0;exitDy=0;exitPerimeter=0;entryX=0;entryY=0.5;entryDx=0;entryDy=0;entryPerimeter=0;" edge="1" parent="1" source="t9NuXf0_EhJUc3xIbt0Y-16" target="t9NuXf0_EhJUc3xIbt0Y-6">
          <mxGeometry relative="1" as="geometry">
            <mxPoint x="630" y="110.00000000000006" as="sourcePoint" />
          </mxGeometry>
        </mxCell>
        <mxCell id="t9NuXf0_EhJUc3xIbt0Y-10" style="edgeStyle=orthogonalEdgeStyle;rounded=0;orthogonalLoop=1;jettySize=auto;html=1;exitX=1;exitY=0.75;exitDx=0;exitDy=0;entryX=1;entryY=0.5;entryDx=0;entryDy=0;entryPerimeter=0;" edge="1" parent="1" source="t9NuXf0_EhJUc3xIbt0Y-16" target="t9NuXf0_EhJUc3xIbt0Y-6">
          <mxGeometry relative="1" as="geometry">
            <mxPoint x="630" y="130" as="sourcePoint" />
            <Array as="points">
              <mxPoint x="620" y="130" />
              <mxPoint x="650" y="130" />
              <mxPoint x="650" y="320" />
              <mxPoint x="700" y="320" />
            </Array>
          </mxGeometry>
        </mxCell>
        <mxCell id="t9NuXf0_EhJUc3xIbt0Y-16" value="MX1508" style="rounded=0;whiteSpace=wrap;html=1;" vertex="1" parent="1">
          <mxGeometry x="510" y="60" width="110" height="90" as="geometry" />
        </mxCell>
        <mxCell id="t9NuXf0_EhJUc3xIbt0Y-18" style="edgeStyle=orthogonalEdgeStyle;rounded=0;orthogonalLoop=1;jettySize=auto;html=1;" edge="1" parent="1" source="t9NuXf0_EhJUc3xIbt0Y-17" target="t9NuXf0_EhJUc3xIbt0Y-16">
          <mxGeometry relative="1" as="geometry">
            <Array as="points">
              <mxPoint x="400" y="105" />
              <mxPoint x="400" y="105" />
            </Array>
          </mxGeometry>
        </mxCell>
        <mxCell id="t9NuXf0_EhJUc3xIbt0Y-19" value="PWM D11,10,9,6" style="edgeLabel;html=1;align=center;verticalAlign=middle;resizable=0;points=[];rounded=0;" vertex="1" connectable="0" parent="t9NuXf0_EhJUc3xIbt0Y-18">
          <mxGeometry x="0.3275" relative="1" as="geometry">
            <mxPoint x="-17" y="-5" as="offset" />
          </mxGeometry>
        </mxCell>
        <mxCell id="t9NuXf0_EhJUc3xIbt0Y-17" value="&lt;div&gt;arduino nano&lt;/div&gt;" style="rounded=0;whiteSpace=wrap;html=1;" vertex="1" parent="1">
          <mxGeometry x="270" y="60" width="110" height="170" as="geometry" />
        </mxCell>
        <mxCell id="t9NuXf0_EhJUc3xIbt0Y-21" style="edgeStyle=orthogonalEdgeStyle;rounded=0;orthogonalLoop=1;jettySize=auto;html=1;" edge="1" parent="1" source="t9NuXf0_EhJUc3xIbt0Y-20" target="t9NuXf0_EhJUc3xIbt0Y-17">
          <mxGeometry relative="1" as="geometry">
            <Array as="points">
              <mxPoint x="100" y="180" />
            </Array>
          </mxGeometry>
        </mxCell>
        <mxCell id="t9NuXf0_EhJUc3xIbt0Y-22" value="A0,1,2,3,6" style="edgeLabel;html=1;align=center;verticalAlign=middle;resizable=0;points=[];rounded=0;" vertex="1" connectable="0" parent="t9NuXf0_EhJUc3xIbt0Y-21">
          <mxGeometry x="0.249" y="-1" relative="1" as="geometry">
            <mxPoint x="36" y="-3" as="offset" />
          </mxGeometry>
        </mxCell>
        <mxCell id="t9NuXf0_EhJUc3xIbt0Y-20" value="line sensor" style="rounded=0;whiteSpace=wrap;html=1;" vertex="1" parent="1">
          <mxGeometry x="10" y="210" width="120" height="40" as="geometry" />
        </mxCell>
        <mxCell id="t9NuXf0_EhJUc3xIbt0Y-28" value="" style="edgeStyle=orthogonalEdgeStyle;rounded=0;orthogonalLoop=1;jettySize=auto;html=1;" edge="1" parent="1" source="t9NuXf0_EhJUc3xIbt0Y-23" target="t9NuXf0_EhJUc3xIbt0Y-27">
          <mxGeometry relative="1" as="geometry" />
        </mxCell>
        <mxCell id="t9NuXf0_EhJUc3xIbt0Y-23" value="battery charger" style="rounded=0;whiteSpace=wrap;html=1;" vertex="1" parent="1">
          <mxGeometry x="10" y="300" width="120" height="60" as="geometry" />
        </mxCell>
        <mxCell id="t9NuXf0_EhJUc3xIbt0Y-30" style="edgeStyle=orthogonalEdgeStyle;rounded=0;orthogonalLoop=1;jettySize=auto;html=1;" edge="1" parent="1" source="t9NuXf0_EhJUc3xIbt0Y-27" target="t9NuXf0_EhJUc3xIbt0Y-16">
          <mxGeometry relative="1" as="geometry" />
        </mxCell>
        <mxCell id="t9NuXf0_EhJUc3xIbt0Y-42" value="5v" style="edgeLabel;html=1;align=center;verticalAlign=middle;resizable=0;points=[];rounded=0;" vertex="1" connectable="0" parent="t9NuXf0_EhJUc3xIbt0Y-30">
          <mxGeometry x="-0.6542" y="-1" relative="1" as="geometry">
            <mxPoint as="offset" />
          </mxGeometry>
        </mxCell>
        <mxCell id="t9NuXf0_EhJUc3xIbt0Y-43" style="edgeStyle=orthogonalEdgeStyle;orthogonalLoop=1;jettySize=auto;html=1;rounded=0;" edge="1" parent="1" source="t9NuXf0_EhJUc3xIbt0Y-27" target="t9NuXf0_EhJUc3xIbt0Y-17">
          <mxGeometry relative="1" as="geometry">
            <Array as="points">
              <mxPoint x="325" y="290" />
              <mxPoint x="325" y="290" />
            </Array>
          </mxGeometry>
        </mxCell>
        <mxCell id="t9NuXf0_EhJUc3xIbt0Y-44" value="5v" style="edgeLabel;html=1;align=center;verticalAlign=middle;resizable=0;points=[];rounded=0;" vertex="1" connectable="0" parent="t9NuXf0_EhJUc3xIbt0Y-43">
          <mxGeometry x="0.06" y="2" relative="1" as="geometry">
            <mxPoint x="-13" y="3" as="offset" />
          </mxGeometry>
        </mxCell>
        <mxCell id="t9NuXf0_EhJUc3xIbt0Y-47" style="edgeStyle=orthogonalEdgeStyle;orthogonalLoop=1;jettySize=auto;html=1;rounded=0;curved=0;" edge="1" parent="1" source="t9NuXf0_EhJUc3xIbt0Y-27" target="t9NuXf0_EhJUc3xIbt0Y-20">
          <mxGeometry relative="1" as="geometry">
            <Array as="points">
              <mxPoint x="325" y="270" />
              <mxPoint x="70" y="270" />
            </Array>
          </mxGeometry>
        </mxCell>
        <mxCell id="t9NuXf0_EhJUc3xIbt0Y-48" style="edgeStyle=orthogonalEdgeStyle;orthogonalLoop=1;jettySize=auto;html=1;rounded=0;curved=0;" edge="1" parent="1" source="t9NuXf0_EhJUc3xIbt0Y-27" target="t9NuXf0_EhJUc3xIbt0Y-32">
          <mxGeometry relative="1" as="geometry">
            <Array as="points">
              <mxPoint x="325" y="270" />
              <mxPoint x="170" y="270" />
              <mxPoint x="170" y="150" />
              <mxPoint x="70" y="150" />
            </Array>
          </mxGeometry>
        </mxCell>
        <mxCell id="t9NuXf0_EhJUc3xIbt0Y-27" value="boost converter" style="whiteSpace=wrap;html=1;rounded=0;" vertex="1" parent="1">
          <mxGeometry x="265" y="330" width="120" height="60" as="geometry" />
        </mxCell>
        <mxCell id="t9NuXf0_EhJUc3xIbt0Y-33" style="edgeStyle=orthogonalEdgeStyle;rounded=0;orthogonalLoop=1;jettySize=auto;html=1;" edge="1" parent="1" source="t9NuXf0_EhJUc3xIbt0Y-32" target="t9NuXf0_EhJUc3xIbt0Y-17">
          <mxGeometry relative="1" as="geometry">
            <Array as="points">
              <mxPoint x="240" y="105" />
              <mxPoint x="240" y="105" />
            </Array>
          </mxGeometry>
        </mxCell>
        <mxCell id="t9NuXf0_EhJUc3xIbt0Y-34" value="A4,5" style="edgeLabel;html=1;align=center;verticalAlign=middle;resizable=0;points=[];rounded=0;" vertex="1" connectable="0" parent="t9NuXf0_EhJUc3xIbt0Y-33">
          <mxGeometry x="-0.4" y="-1" relative="1" as="geometry">
            <mxPoint as="offset" />
          </mxGeometry>
        </mxCell>
        <mxCell id="t9NuXf0_EhJUc3xIbt0Y-32" value="MPU6050" style="rounded=0;whiteSpace=wrap;html=1;" vertex="1" parent="1">
          <mxGeometry x="10" y="85" width="120" height="40" as="geometry" />
        </mxCell>
        <mxCell id="t9NuXf0_EhJUc3xIbt0Y-36" style="edgeStyle=orthogonalEdgeStyle;rounded=0;orthogonalLoop=1;jettySize=auto;html=1;" edge="1" parent="1" source="t9NuXf0_EhJUc3xIbt0Y-5" target="t9NuXf0_EhJUc3xIbt0Y-17">
          <mxGeometry relative="1" as="geometry">
            <Array as="points">
              <mxPoint x="870" y="250" />
              <mxPoint x="870" y="340" />
              <mxPoint x="500" y="340" />
              <mxPoint x="500" y="190" />
            </Array>
          </mxGeometry>
        </mxCell>
        <mxCell id="t9NuXf0_EhJUc3xIbt0Y-38" value="speed sensor D7" style="edgeLabel;html=1;align=center;verticalAlign=middle;resizable=0;points=[];rounded=0;" vertex="1" connectable="0" parent="t9NuXf0_EhJUc3xIbt0Y-36">
          <mxGeometry x="0.8632" y="2" relative="1" as="geometry">
            <mxPoint x="18" as="offset" />
          </mxGeometry>
        </mxCell>
        <mxCell id="t9NuXf0_EhJUc3xIbt0Y-52" style="edgeStyle=orthogonalEdgeStyle;orthogonalLoop=1;jettySize=auto;html=1;" edge="1" parent="1" source="t9NuXf0_EhJUc3xIbt0Y-51" target="t9NuXf0_EhJUc3xIbt0Y-23">
          <mxGeometry relative="1" as="geometry" />
        </mxCell>
        <mxCell id="t9NuXf0_EhJUc3xIbt0Y-51" value="3.7 lipo" style="rounded=0;whiteSpace=wrap;html=1;" vertex="1" parent="1">
          <mxGeometry x="10" y="410" width="120" height="60" as="geometry" />
        </mxCell>
      </root>
    </mxGraphModel>
  </diagram>
</mxfile>
